<svg class="prefix__text-black prefix__dark:text-white prefix__block prefix__w-auto prefix__h-6" width="1237.622" height="245.197" fill="none" xmlns:xlink="http://www.w3.org/1999/xlink" xmlns="http://www.w3.org/2000/svg"><defs><linearGradient id="prefix__a"><stop offset="0" stop-color="#2f4e4e" stop-opacity="0"/></linearGradient><linearGradient xlink:href="#prefix__a" id="prefix__b" x1="344.451" y1="132.395" x2="1237.622" y2="132.395" gradientUnits="userSpaceOnUse"/></defs><path d="M168 200h111c3.542 0 6.932-1.244 10-3 3.068-1.756 6.23-3.959 8-7 1.77-3.041 3.002-6.49 3-10.001-.002-3.511-1.227-6.959-3-9.998L222 41c-1.77-3.04-3.933-5.245-7-7s-7.458-3-11-3-6.933 1.245-10 3-5.23 3.96-7 7l-19 33-38-64.002c-1.772-3.04-3.932-6.243-7-7.998s-6.458-2-10-2-6.932.245-10 2c-3.068 1.755-6.228 4.958-8 7.998L2 170c-1.773 3.039-1.998 6.487-2 9.998-.002 3.511.23 6.96 2 10.001 1.77 3.04 4.932 5.244 8 7 3.068 1.756 6.458 3 10 3h70c27.737 0 47.925-12.442 62-36l34-59 18-31 55 94h-73zm-79-32H40l73-126 37 63-24.509 42.725C116.144 163.01 105.488 168 89 168z" fill="#00dc82"/><g fill="#000" stroke="none" stroke-width="1.598" color="#000"><path d="M379.146 76.196l50.535 76.466V75.488q0-7.523 3.186-11.24 3.275-3.806 8.762-3.806 5.664 0 8.939 3.806 3.274 3.717 3.274 11.24V177.53q0 17.081-14.16 17.081-3.54 0-6.372-1.062-2.832-.973-5.31-3.186-2.478-2.213-4.603-5.133-2.124-3.01-4.248-6.107l-49.296-75.58v76.023q0 7.434-3.451 11.24-3.452 3.805-8.85 3.805-5.576 0-8.94-3.806-3.362-3.894-3.362-11.24V79.47q0-6.372 1.416-10 1.681-3.983 5.576-6.461 3.894-2.567 8.407-2.567 3.54 0 6.018 1.15 2.567 1.151 4.426 3.098 1.947 1.948 3.894 5.045 2.035 3.098 4.16 6.46z"/><path d="M360.648 59.643c-3.16 0-6.13.91-8.843 2.699-2.711 1.727-4.693 4.016-5.875 6.816l-.004.01-.004.012c-1.002 2.566-1.471 5.983-1.471 10.29v100.096c0 5.02 1.152 8.978 3.557 11.762l.004.004.002.004c2.387 2.701 5.638 4.074 9.537 4.074 3.787 0 7.003-1.375 9.443-4.066 2.475-2.729 3.658-6.698 3.658-11.777v-73.334l47.832 73.336.006.008a548.333 548.333 0 004.254 6.115l.004.004.004.006c1.447 1.989 3.017 3.744 4.715 5.26 1.718 1.534 3.582 2.653 5.574 3.34 1.988.743 4.205 1.109 6.64 1.109 4.882 0 8.71-1.51 11.237-4.559 2.527-3.048 3.723-7.516 3.723-13.32V75.488c0-5.13-1.114-9.087-3.473-11.765-2.331-2.706-5.586-4.08-9.539-4.08-3.843 0-7.04 1.38-9.367 4.084l-.002.002c-2.297 2.68-3.377 6.631-3.377 11.76v74.515l-49.06-74.234a426.601 426.601 0 00-4.159-6.46l-.006-.007c-1.316-2.093-2.64-3.814-3.988-5.164l-.004-.004c-1.308-1.37-2.87-2.46-4.662-3.266-1.784-.828-3.91-1.226-6.356-1.226zm0 1.6c2.274 0 4.162.37 5.682 1.075l.006.002.004.002c1.623.728 3.007 1.698 4.174 2.92l.008.006.006.008c1.242 1.242 2.509 2.877 3.783 4.904l.004.008.004.006a425.026 425.026 0 014.152 6.45l.004.005.006.008 52 78.683V75.488c0-4.9 1.043-8.443 2.993-10.718l.002-.002c2.039-2.369 4.682-3.526 8.154-3.526 3.597 0 6.3 1.163 8.334 3.527l.002.004.004.002c2.006 2.278 3.074 5.814 3.074 10.713v102.043c0 5.583-1.162 9.656-3.355 12.301-2.193 2.645-5.447 3.98-10.006 3.98-2.28 0-4.306-.34-6.092-1.01l-.01-.003-.01-.004c-1.78-.612-3.456-1.615-5.039-3.028-1.604-1.432-3.097-3.096-4.48-4.998a546.598 546.598 0 01-4.233-6.082l-.01-.015-50.754-77.817v78.711c0 4.833-1.117 8.358-3.244 10.703-2.162 2.384-4.848 3.543-8.26 3.543-3.534 0-6.24-1.161-8.338-3.533l-.002-.002c-2.075-2.408-3.162-5.94-3.162-10.71V79.47c0-4.181.474-7.425 1.358-9.696 1.058-2.503 2.79-4.517 5.263-6.091l.006-.004.006-.004c2.478-1.633 5.11-2.434 7.967-2.434z" fill="url(#prefix__b)"/><path d="M543.672 180.983v-3.098q-4.336 5.487-9.115 9.204-4.78 3.717-10.444 5.488-5.664 1.858-12.921 1.858-8.762 0-15.754-3.629-6.903-3.628-10.708-10-4.514-7.7-4.514-22.126V110.8q0-7.257 3.275-10.797 3.274-3.629 8.673-3.629 5.487 0 8.85 3.629 3.363 3.629 3.363 10.797v38.676q0 8.408 1.416 14.16 1.416 5.664 5.045 8.939 3.717 3.186 10 3.186 6.107 0 11.506-3.629 5.399-3.628 7.877-9.47 2.035-5.132 2.035-22.479V110.8q0-7.168 3.363-10.797 3.363-3.629 8.762-3.629 5.399 0 8.673 3.629 3.275 3.54 3.275 10.797v70.006q0 6.903-3.186 10.354-3.098 3.452-8.054 3.452t-8.23-3.54q-3.187-3.629-3.187-10.09z"/><path d="M492.164 95.576c-3.774 0-6.931 1.309-9.26 3.885-2.368 2.56-3.486 6.381-3.486 11.34v47.879c0 9.7 1.504 17.208 4.623 22.529l.002.004v.002c2.612 4.373 6.304 7.818 11.023 10.299l.002.002h.002c4.783 2.482 10.17 3.719 16.122 3.719 4.904 0 9.295-.628 13.166-1.897 3.864-1.208 7.432-3.084 10.689-5.617 2.73-2.124 5.322-4.763 7.826-7.723v.985c0 4.438 1.106 8.021 3.385 10.617l.008.008.006.008c2.32 2.507 5.324 3.795 8.818 3.795 3.489 0 6.44-1.258 8.647-3.715 2.3-2.496 3.392-6.168 3.392-10.889v-70.006c0-4.958-1.12-8.78-3.488-11.34-2.329-2.576-5.485-3.884-9.26-3.884-3.778 0-6.96 1.307-9.347 3.883-2.42 2.611-3.576 6.437-3.576 11.341v29.383c0 11.524-.735 19.034-1.977 22.174-1.594 3.754-4.103 6.773-7.582 9.111-3.483 2.342-7.148 3.494-11.06 3.494-4.05 0-7.165-1.014-9.473-2.99-2.282-2.063-3.884-4.877-4.797-8.527v-.002c-.922-3.747-1.393-8.407-1.393-13.967v-38.676c0-4.904-1.156-8.73-3.576-11.341-2.39-2.578-5.601-3.883-9.435-3.883zm0 1.598c3.482 0 6.169 1.113 8.264 3.373 2.063 2.227 3.15 5.6 3.15 10.254v38.676c0 5.65.474 10.428 1.44 14.351v.002c.974 3.897 2.734 7.036 5.285 9.338l.008.008.008.006c2.647 2.269 6.195 3.379 10.52 3.379 4.229 0 8.236-1.269 11.95-3.766 3.717-2.498 6.458-5.789 8.168-9.82l.004-.008.002-.01c1.471-3.709 2.092-11.178 2.092-22.773V110.8c0-4.654 1.087-8.028 3.15-10.254 2.098-2.263 4.756-3.373 8.176-3.373s6.044 1.108 8.08 3.365l.004.002.002.004c1.999 2.16 3.063 5.538 3.063 10.256v70.006c0 4.479-1.029 7.706-2.973 9.812l-.004.004-.004.004c-1.923 2.144-4.34 3.186-7.459 3.186-3.11 0-5.591-1.07-7.636-3.278-1.965-2.241-2.983-5.382-2.983-9.552v-5.397l-1.426 1.805c-2.857 3.615-5.85 6.635-8.978 9.068-3.114 2.422-6.506 4.204-10.192 5.356l-.006.002h-.006c-3.68 1.207-7.901 1.82-12.671 1.82-5.73 0-10.842-1.182-15.381-3.537l-.004-.002c-4.483-2.357-7.93-5.58-10.39-9.701-2.898-4.945-4.401-12.187-4.401-21.717v-47.879c0-4.718 1.064-8.096 3.062-10.256l.002-.004.004-.002c2.037-2.257 4.66-3.365 8.08-3.365z" fill="url(#prefix__b)"/><path d="M642.795 184.611l-17.523-25.754-17.966 25.754q-3.895 5.399-6.638 7.7-2.655 2.301-6.815 2.301-4.602 0-7.877-2.832-3.186-2.92-3.186-6.638 0-3.805 4.957-10.885l21.86-31.33-19.382-26.109q-5.045-6.46-5.045-11.24 0-3.716 3.009-6.46 3.01-2.744 7.877-2.744 4.248 0 6.991 2.39 2.833 2.39 6.55 7.523l15.665 21.417 15.222-21.417q3.806-5.31 6.55-7.612 2.831-2.3 6.99-2.3 4.78 0 7.878 2.743 3.186 2.655 3.186 6.46 0 2.744-1.328 5.31-1.239 2.479-3.894 5.93l-19.382 26.109 21.86 31.33q5.133 7.345 5.133 11.062 0 3.806-3.186 6.55-3.186 2.743-7.877 2.743-4.16 0-7.08-2.39-2.832-2.39-6.549-7.61z"/><path d="M596.066 95.576c-3.395 0-6.251.978-8.416 2.951-2.138 1.95-3.27 4.357-3.27 7.051 0 3.467 1.794 7.35 5.216 11.733l19.027 25.63-21.531 30.858c-3.343 4.775-5.1 8.46-5.1 11.344 0 2.706 1.197 5.165 3.445 7.226l.008.008.008.008c2.324 2.01 5.169 3.026 8.4 3.026 2.921 0 5.413-.827 7.339-2.497 1.92-1.612 4.149-4.214 6.761-7.836l.004-.004 17.307-24.808 16.875 24.803.006.006c2.5 3.512 4.708 6.092 6.684 7.76l.006.003.004.004c2.09 1.711 4.66 2.569 7.586 2.569 3.283 0 6.127-.98 8.398-2.936 2.263-1.948 3.465-4.396 3.465-7.156 0-2.846-1.82-6.57-5.277-11.52l-21.532-30.857 19.032-25.637.008-.01c1.785-2.321 3.106-4.328 3.966-6.049.936-1.81 1.413-3.713 1.413-5.668 0-2.755-1.204-5.175-3.465-7.064-2.217-1.96-5.062-2.937-8.397-2.937-2.92 0-5.46.823-7.496 2.478l-.004.004-.006.004c-1.921 1.611-4.127 4.188-6.685 7.758v.002l-14.58 20.517-15.01-20.521-.002-.004c-2.495-3.445-4.701-5.99-6.67-7.653-1.983-1.727-4.534-2.586-7.516-2.586zm0 1.598c2.683 0 4.792.734 6.467 2.193l.004.004.006.004c1.804 1.522 3.96 3.99 6.416 7.38h.002l16.32 22.315 15.862-22.318.002-.002c2.513-3.506 4.67-6 6.406-7.457 1.739-1.412 3.86-2.12 6.484-2.12 3.034 0 5.434.85 7.346 2.544l.01.008.01.007c1.98 1.65 2.899 3.532 2.899 5.846 0 1.7-.407 3.336-1.239 4.943l-.002.006-.004.004c-.79 1.581-2.062 3.526-3.812 5.801l-.004.004-19.729 26.576 22.19 31.803c3.386 4.845 4.988 8.493 4.988 10.604 0 2.314-.923 4.235-2.908 5.945-1.977 1.702-4.384 2.549-7.356 2.549-2.618 0-4.767-.734-6.57-2.207-1.797-1.518-3.95-4.005-6.398-7.444l-.006-.008-.004-.006-18.167-26.699-18.629 26.705c-2.571 3.565-4.762 6.09-6.496 7.545l-.004.004-.006.004c-1.614 1.399-3.665 2.106-6.29 2.106-2.902 0-5.307-.87-7.348-2.633-1.991-1.83-2.916-3.792-2.916-6.037 0-2.19 1.545-5.763 4.81-10.428h.002l22.19-31.803-19.733-26.578-.006-.008c-3.304-4.232-4.875-7.843-4.875-10.748 0-2.262.875-4.161 2.748-5.869 1.848-1.685 4.245-2.535 7.34-2.535z" fill="url(#prefix__b)"/><path d="M686.161 98.498h2.655V83.984q0-5.841.266-9.116.354-3.363 1.77-5.752 1.416-2.478 4.071-3.983 2.655-1.593 5.93-1.593 4.602 0 8.319 3.452 2.478 2.3 3.097 5.664.708 3.274.708 9.381v16.461h8.85q5.134 0 7.789 2.478 2.744 2.39 2.744 6.196 0 4.867-3.895 6.814-3.805 1.947-10.974 1.947h-4.514v44.429q0 5.664.354 8.761.443 3.01 2.125 4.957 1.77 1.858 5.664 1.858 2.124 0 5.752-.708 3.629-.796 5.665-.796 2.92 0 5.221 2.39 2.39 2.3 2.39 5.752 0 5.84-6.372 8.938-6.373 3.098-18.32 3.098-11.329 0-17.17-3.806-5.841-3.805-7.7-10.531-1.77-6.727-1.77-17.966v-46.376h-3.186q-5.221 0-7.965-2.478-2.744-2.478-2.744-6.283 0-3.806 2.833-6.196 2.92-2.478 8.407-2.478z"/><path d="M700.854 62.74c-2.31 0-4.44.57-6.333 1.703-1.873 1.064-3.343 2.495-4.357 4.266 0 .002 0 .004-.002.006-1.011 1.708-1.63 3.74-1.875 6.07v.01l-.002.008c-.18 2.221-.268 5.275-.268 9.181V97.7h-1.855c-3.777 0-6.789.856-8.924 2.666-2.048 1.728-3.115 4.072-3.115 6.807 0 2.729 1.026 5.088 3.006 6.877 2.016 1.82 4.894 2.683 8.502 2.683h2.386v45.577c0 7.535.59 13.58 1.797 18.17v.004l.002.006c1.286 4.654 3.992 8.354 8.034 10.988 4.092 2.666 9.963 3.933 17.605 3.933 8.034 0 14.245-1.026 18.67-3.177 4.426-2.152 6.822-5.472 6.822-9.657 0-2.48-.897-4.645-2.627-6.316-1.648-1.706-3.623-2.625-5.783-2.625-1.461 0-3.386.277-5.836.815l.018-.004c-2.39.466-4.273.693-5.6.693-2.459 0-4.09-.58-5.07-1.6-1-1.165-1.647-2.647-1.924-4.52-.23-2.01-.348-4.904-.348-8.657v-43.63h3.713c4.85 0 8.618-.643 11.336-2.033 2.832-1.417 4.332-4.07 4.332-7.527 0-2.722-1.028-5.055-3.006-6.785-1.957-1.823-4.777-2.688-8.324-2.688h-8.05V82.037c0-4.094-.233-7.25-.725-9.533-.443-2.393-1.57-4.456-3.338-6.098-2.599-2.412-5.594-3.666-8.862-3.666zm0 1.6c2.868 0 5.417 1.047 7.775 3.236 1.534 1.425 2.47 3.137 2.855 5.225l.002.012.002.011c.45 2.083.69 5.173.69 9.213v17.26h9.65c3.294 0 5.66.787 7.242 2.264l.01.01.012.008c1.67 1.455 2.469 3.248 2.469 5.593 0 3.032-1.095 4.921-3.453 6.1l-.002.002-.004.002c-2.356 1.205-5.905 1.86-10.612 1.86h-5.312v45.226c0 3.793.117 6.734.36 8.853l.001.012.002.014c.313 2.125 1.08 3.935 2.31 5.361l.013.016.013.013c1.382 1.451 3.52 2.106 6.242 2.106 1.505 0 3.459-.245 5.907-.723l.01-.002.008-.002c2.388-.524 4.241-.777 5.494-.777 1.729 0 3.227.673 4.644 2.144l.012.012.01.01c1.45 1.396 2.147 3.061 2.147 5.178 0 3.603-1.854 6.24-5.924 8.219-4.072 1.979-10.075 3.017-17.971 3.017-7.463 0-13.036-1.268-16.732-3.676-3.746-2.44-6.173-5.759-7.366-10.072v-.002c-1.15-4.377-1.742-10.307-1.742-17.754v-47.174h-3.984c-3.355 0-5.788-.788-7.43-2.271-1.678-1.516-2.48-3.346-2.48-5.692 0-2.338.82-4.125 2.548-5.584v-.002c1.76-1.492 4.355-2.289 7.893-2.289h3.453V83.985c0-3.878.09-6.897.264-9.041.227-2.148.786-3.945 1.66-5.42l.004-.006.002-.006c.872-1.526 2.112-2.743 3.771-3.683l.01-.004.008-.006c1.646-.988 3.466-1.479 5.52-1.479z" fill="url(#prefix__b)"/><path d="M855.024 176.292q5.753 3.894 12.567 7.611 6.815 3.629 9.027 5.841 2.213 2.124 2.213 6.107 0 2.832-2.655 5.664-2.567 2.832-6.284 2.832-3.009 0-7.345-1.947-4.249-1.947-10.09-5.664-5.752-3.717-12.656-8.673-12.832 6.55-31.506 6.55-15.134 0-27.17-4.78-11.948-4.868-20.09-13.895-8.143-9.116-12.303-21.595-4.07-12.478-4.07-27.17 0-14.957 4.247-27.436 4.337-12.478 12.48-21.24 8.142-8.762 19.824-13.364 11.682-4.69 26.55-4.69 20.18 0 34.605 8.23 14.514 8.142 21.949 23.276 7.434 15.046 7.434 35.401 0 30.888-16.727 48.942zm-20.621-14.337q5.487-6.284 8.054-14.869 2.655-8.584 2.655-19.913 0-14.249-4.603-24.692-4.602-10.443-13.186-15.753-8.497-5.4-19.56-5.4-7.876 0-14.602 3.01-6.638 2.92-11.506 8.585-4.779 5.664-7.61 14.514-2.744 8.762-2.744 19.736 0 22.391 10.443 34.516 10.443 12.036 26.374 12.036 6.549 0 13.452-2.743-4.16-3.098-10.443-6.195-6.196-3.098-8.497-4.78-2.3-1.68-2.3-4.779 0-2.655 2.212-4.69 2.212-2.036 4.868-2.036 8.053 0 26.993 13.453z"/><path d="M807.764 59.643c-9.997 0-18.951 1.577-26.848 4.748-7.888 3.108-14.604 7.634-20.113 13.562-5.509 5.928-9.726 13.11-12.649 21.522v.004l-.002.002c-2.863 8.41-4.289 17.646-4.289 27.693 0 9.868 1.367 19.01 4.11 27.418v.002l.002.002c2.804 8.412 6.959 15.713 12.463 21.875l.002.002h.002c5.51 6.11 12.314 10.813 20.38 14.1l.004.001.004.002c8.131 3.229 17.292 4.834 27.465 4.834 12.335 0 22.8-2.15 31.414-6.441 4.454 3.19 8.58 6.026 12.315 8.44h.002l.004.001c3.915 2.492 7.302 4.397 10.183 5.717l.004.002h.002c2.954 1.327 5.496 2.018 7.674 2.018 2.68 0 5.034-1.063 6.873-3.092 1.856-1.983 2.865-4.068 2.865-6.203 0-2.8-.803-5.09-2.455-6.678-1.61-1.608-4.64-3.544-9.2-5.972l-.009-.004a153.003 153.003 0 01-11.736-7.108c10.868-12.13 16.32-28.41 16.32-48.74 0-13.667-2.498-25.594-7.517-35.752v-.002c-5.022-10.221-12.463-18.115-22.27-23.617l-.004-.002c-9.756-5.566-21.437-8.334-34.996-8.334zm0 1.6c13.343 0 24.73 2.717 34.209 8.124l.002.002h.002c9.542 5.353 16.732 12.976 21.623 22.932v.002c4.892 9.902 7.351 21.574 7.351 35.047 0 20.447-5.516 36.53-16.513 48.4l-.633.682.771.521c3.859 2.612 8.07 5.164 12.633 7.653l.004.002.002.002c4.515 2.404 7.499 4.36 8.838 5.699l.006.006.006.006c1.295 1.243 1.967 3.024 1.967 5.531 0 1.638-.759 3.326-2.438 5.117l-.006.006-.004.004c-1.582 1.746-3.416 2.57-5.691 2.57-1.832 0-4.189-.607-7.014-1.874l-.006-.002c-2.781-1.276-6.113-3.146-9.982-5.608l-.004-.002c-3.82-2.469-8.027-5.351-12.62-8.648l-.396-.285-.433.222c-8.416 4.295-18.787 6.461-31.143 6.461-10.005 0-18.958-1.579-26.875-4.723-7.861-3.203-14.449-7.762-19.793-13.687-5.35-5.99-9.393-13.085-12.135-21.307v-.002s0-.003-.002-.004c-2.684-8.23-4.03-17.198-4.03-26.916 0-9.893 1.405-18.948 4.204-27.174v-.002l.002-.003c2.86-8.225 6.96-15.2 12.307-20.954 5.346-5.752 11.847-10.136 19.533-13.164l.002-.002h.002c7.68-3.083 16.426-4.632 26.254-4.632zm0 19.286c-5.353 0-10.34 1.027-14.93 3.08-4.531 1.995-8.469 4.934-11.785 8.793l-.002.002-.002.004c-3.268 3.874-5.85 8.808-7.762 14.785v.002l-.002.004c-1.857 5.932-2.78 12.592-2.78 19.975 0 15.052 3.517 26.77 10.638 35.037l.002.002c7.094 8.176 16.155 12.313 26.976 12.313 4.478 0 9.065-.94 13.748-2.801l1.33-.53-1.148-.853c-2.825-2.103-6.343-4.19-10.563-6.27l-.004-.001c-4.11-2.056-6.932-3.65-8.379-4.708-1.345-.983-1.972-2.267-1.972-4.134 0-1.548.605-2.864 1.953-4.104 1.358-1.249 2.762-1.824 4.328-1.824 4.924 0 13.947 4.367 26.53 13.305l.59.42.474-.545c3.734-4.277 6.476-9.34 8.217-15.159l.002-.006c1.798-5.816 2.687-12.53 2.687-20.142 0-9.585-1.548-17.93-4.67-25.016-3.122-7.084-7.63-12.48-13.498-16.11-5.795-3.679-12.477-5.519-19.978-5.519zm0 1.6c7.245 0 13.599 1.758 19.13 5.273l.005.002.004.002c5.578 3.45 9.86 8.557 12.875 15.397 3.014 6.84 4.535 14.958 4.535 24.37 0 7.49-.879 14.048-2.62 19.677l-.001.004v.004c-1.61 5.384-4.144 10.012-7.493 13.998-12.293-8.666-21.084-13.153-26.789-13.153-1.974 0-3.818.782-5.41 2.247-1.602 1.474-2.469 3.287-2.469 5.279 0 2.263.905 4.165 2.627 5.424 1.621 1.184 4.465 2.776 8.612 4.85h.002l.002.001c3.536 1.743 6.44 3.481 8.937 5.21-3.963 1.398-7.837 2.212-11.594 2.212-10.419 0-18.939-3.887-25.77-11.76-6.801-7.899-10.247-19.19-10.247-33.992 0-7.247.905-13.743 2.705-19.492l.002-.004v-.002c1.862-5.817 4.354-10.556 7.455-14.232 3.172-3.692 6.904-6.474 11.22-8.374l.003-.002h.002c4.378-1.958 9.128-2.939 14.277-2.939z" fill="url(#prefix__b)"/><g><path d="M955.297 180.983v-3.098q-4.336 5.487-9.116 9.204-4.779 3.717-10.443 5.488-5.664 1.858-12.921 1.858-8.762 0-15.754-3.629-6.903-3.628-10.708-10-4.514-7.7-4.514-22.126V110.8q0-7.257 3.274-10.797 3.275-3.629 8.674-3.629 5.487 0 8.85 3.629 3.363 3.629 3.363 10.797v38.676q0 8.408 1.416 14.16 1.416 5.664 5.045 8.939 3.717 3.186 10 3.186 6.107 0 11.506-3.629 5.398-3.628 7.877-9.47 2.035-5.132 2.035-22.479V110.8q0-7.168 3.363-10.797 3.363-3.629 8.762-3.629 5.399 0 8.673 3.629 3.275 3.54 3.275 10.797v70.006q0 6.903-3.186 10.354-3.098 3.452-8.054 3.452t-8.23-3.54q-3.187-3.629-3.187-10.09z"/><path d="M903.79 95.576c-3.775 0-6.932 1.309-9.26 3.885-2.369 2.56-3.489 6.381-3.489 11.34v47.879c0 9.7 1.506 17.208 4.625 22.529v.004l.002.002c2.612 4.373 6.304 7.818 11.023 10.299l.002.002h.002c4.783 2.482 10.17 3.719 16.122 3.719 4.906 0 9.297-.628 13.17-1.899 3.863-1.208 7.43-3.083 10.685-5.615 2.73-2.124 5.322-4.763 7.826-7.723v.985c0 4.438 1.106 8.021 3.385 10.617l.006.008.008.008c2.32 2.507 5.324 3.795 8.818 3.795 3.489 0 6.44-1.258 8.647-3.715 2.3-2.496 3.39-6.168 3.39-10.889v-70.006c0-4.954-1.116-8.774-3.48-11.334l-.004-.004c-2.33-2.578-5.486-3.886-9.262-3.886-3.778 0-6.96 1.307-9.347 3.883-2.42 2.611-3.577 6.437-3.577 11.341v29.383c0 11.524-.735 19.034-1.976 22.174-1.594 3.754-4.103 6.773-7.582 9.111-3.484 2.342-7.148 3.494-11.06 3.494-4.051 0-7.165-1.014-9.473-2.99-2.282-2.063-3.885-4.877-4.797-8.527v-.002c-.922-3.747-1.393-8.407-1.393-13.967v-38.676c0-4.904-1.156-8.73-3.576-11.341-2.39-2.578-5.601-3.883-9.436-3.883zm0 1.598c3.481 0 6.168 1.113 8.263 3.373 2.063 2.227 3.15 5.6 3.15 10.254v38.676c0 5.65.474 10.428 1.44 14.351v.002c.974 3.897 2.734 7.036 5.285 9.338l.008.008.008.006c2.647 2.269 6.195 3.379 10.52 3.379 4.229 0 8.236-1.269 11.95-3.766 3.717-2.498 6.458-5.789 8.168-9.82l.002-.008.004-.01c1.471-3.709 2.092-11.178 2.092-22.773V110.8c0-4.654 1.087-8.028 3.15-10.254 2.098-2.263 4.756-3.373 8.176-3.373s6.044 1.108 8.08 3.365l.004.002.002.004c1.999 2.16 3.063 5.538 3.063 10.256v70.006c0 4.479-1.03 7.706-2.975 9.812l-.004.004-.002.004c-1.923 2.144-4.34 3.186-7.459 3.186-3.11 0-5.591-1.07-7.636-3.278-1.965-2.241-2.983-5.382-2.983-9.552v-5.397l-1.426 1.805c-2.857 3.615-5.85 6.635-8.978 9.068-3.114 2.422-6.506 4.204-10.191 5.356l-.006.002h-.006c-3.68 1.207-7.902 1.82-12.672 1.82-5.73 0-10.842-1.182-15.381-3.537l-.004-.002c-4.483-2.357-7.93-5.58-10.39-9.701-2.898-4.945-4.401-12.186-4.401-21.717v-47.879c0-4.718 1.062-8.096 3.06-10.256l.004-.004.004-.002c2.037-2.257 4.66-3.365 8.08-3.365z" fill="url(#prefix__b)"/></g><g><path d="M1026.188 110.092v69.829q0 7.257-3.452 10.974-3.452 3.717-8.762 3.717-5.31 0-8.673-3.806-3.275-3.805-3.275-10.885V110.8q0-7.17 3.275-10.798 3.363-3.629 8.673-3.629 5.31 0 8.762 3.629 3.452 3.629 3.452 10.09zm-11.948-24.957q-5.045 0-8.674-3.098-3.54-3.098-3.54-8.762 0-5.133 3.63-8.408 3.716-3.363 8.584-3.363 4.69 0 8.319 3.01 3.629 3.009 3.629 8.761 0 5.576-3.54 8.762-3.54 3.098-8.408 3.098z"/><path d="M1014.24 60.705c-3.429 0-6.514 1.212-9.12 3.57-2.573 2.322-3.893 5.39-3.893 9 0 3.943 1.272 7.14 3.814 9.364v.006c2.558 2.183 5.667 3.289 9.193 3.289 3.415 0 6.437-1.11 8.934-3.295v-.008c2.532-2.28 3.805-5.47 3.805-9.356 0-4.003-1.307-7.21-3.918-9.377-2.55-2.114-5.53-3.193-8.829-3.193zm0 1.598c2.956 0 5.52.928 7.809 2.826 2.226 1.846 3.34 4.48 3.34 8.146 0 3.545-1.088 6.194-3.272 8.162-2.222 1.944-4.803 2.899-7.877 2.899-3.199 0-5.872-.96-8.152-2.906-2.174-1.906-3.26-4.548-3.26-8.155 0-3.233 1.099-5.77 3.364-7.814 2.349-2.126 4.987-3.158 8.048-3.158zm-.265 33.273c-3.723 0-6.876 1.31-9.26 3.883v.008c-2.359 2.613-3.48 6.433-3.48 11.334v69.119c0 4.843 1.125 8.685 3.468 11.408v.008c2.38 2.694 5.54 4.074 9.272 4.074 3.726 0 6.907-1.343 9.347-3.97 2.478-2.668 3.664-6.555 3.664-11.52v-69.828c0-4.45-1.207-8.048-3.672-10.639-2.442-2.567-5.617-3.877-9.34-3.877zm0 1.598c3.358 0 6.021 1.108 8.181 3.379 2.138 2.247 3.233 5.374 3.233 9.539v69.828c0 4.711-1.114 8.144-3.239 10.432-2.162 2.328-4.822 3.46-8.175 3.46-3.35 0-5.969-1.155-8.073-3.535-2.019-2.35-3.074-5.765-3.074-10.357V110.8c0-4.654 1.06-8.032 3.064-10.257 2.1-2.262 4.728-3.37 8.084-3.37z" fill="url(#prefix__b)"/></g><g><path d="M1137.79 164.698q0 4.514-2.744 9.647-2.656 5.133-8.231 9.824-5.487 4.602-13.895 7.434t-18.94 2.832q-22.39 0-34.958-13.01-12.567-13.098-12.567-35.047 0-14.868 5.752-26.285 5.753-11.417 16.639-17.612 10.886-6.284 26.02-6.284 9.38 0 17.169 2.744 7.877 2.743 13.275 7.08 5.488 4.337 8.32 9.293 2.92 4.868 2.92 9.116 0 4.336-3.274 7.345-3.186 3.01-7.789 3.01-3.009 0-5.044-1.505-1.947-1.593-4.425-5.045-4.425-6.726-9.293-10.09-4.78-3.362-12.213-3.362-10.71 0-17.258 8.408-6.55 8.319-6.55 22.833 0 6.815 1.682 12.568 1.681 5.664 4.868 9.735 3.186 3.982 7.7 6.107 4.513 2.035 9.912 2.035 7.257 0 12.39-3.363 5.222-3.363 9.204-10.266 2.213-4.071 4.78-6.372 2.566-2.302 6.283-2.302 4.425 0 7.346 3.364 2.92 3.363 2.92 7.168z"/><path d="M1094.865 95.398c-10.2 0-19.022 2.122-26.418 6.391-7.386 4.205-13.053 10.207-16.953 17.945-3.898 7.736-5.838 16.63-5.838 26.645 0 14.785 4.257 26.706 12.79 35.6v.002c8.542 8.843 20.45 13.253 35.533 13.253 7.092 0 13.494-.954 19.195-2.875 5.68-1.913 10.402-4.432 14.152-7.578v-.002c3.776-3.177 6.59-6.525 8.42-10.058 1.875-3.508 2.838-6.853 2.838-10.024 0-2.741-1.07-5.336-3.115-7.691-2.078-2.393-4.797-3.639-7.95-3.639-2.642 0-4.964.844-6.818 2.506-1.8 1.614-3.44 3.814-4.947 6.586l.01-.02c-2.608 4.52-5.596 7.837-8.945 9.995v.004c-3.278 2.147-7.239 3.232-11.954 3.232-3.497 0-6.68-.656-9.58-1.963v-.002c-2.893-1.363-5.35-3.312-7.398-5.871-2.055-2.626-3.634-5.776-4.73-9.47-1.097-3.753-1.65-7.865-1.65-12.34 0-9.557 2.151-16.97 6.378-22.338v-.004c4.236-5.439 9.697-8.1 16.627-8.1 4.836 0 8.727 1.087 11.754 3.217v.004c3.133 2.165 6.168 5.448 9.078 9.87l.01.015.01.013c1.676 2.335 3.18 4.062 4.568 5.198l.014.011.018.012c1.509 1.115 3.379 1.662 5.518 1.662 3.24 0 6.07-1.09 8.334-3.226 2.32-2.135 3.529-4.838 3.529-7.928 0-3.014-1.036-6.19-3.033-9.522a.007.007 0 010-.006c-1.948-3.402-4.79-6.568-8.504-9.504v-.004c-3.681-2.956-8.189-5.354-13.506-7.207v-.002c-5.286-1.861-11.101-2.787-17.432-2.787zm0 1.598c6.176 0 11.807.904 16.904 2.7 5.182 1.804 9.524 4.125 13.04 6.949v.004c3.594 2.84 6.293 5.864 8.12 9.062v.006l.01.008c1.895 3.157 2.807 6.056 2.807 8.705 0 2.69-.975 4.881-3.017 6.758v.008c-1.985 1.874-4.347 2.79-7.24 2.79-1.866 0-3.35-.456-4.553-1.34-1.205-.99-2.646-2.616-4.268-4.876-2.983-4.528-6.133-7.963-9.48-10.277v-.002c-3.345-2.353-7.596-3.506-12.67-3.506-7.349 0-13.393 2.943-17.89 8.715-4.504 5.723-6.716 13.529-6.716 23.324 0 4.609.568 8.876 1.713 12.793v.002c1.145 3.858 2.813 7.198 5.006 10v.008c2.196 2.745 4.867 4.863 7.984 6.33l.01.004.01.002c3.118 1.406 6.541 2.106 10.24 2.106 4.96 0 9.258-1.157 12.823-3.49v-.003c3.611-2.326 6.76-5.853 9.463-10.537l.01-.008v-.01c1.443-2.656 2.99-4.704 4.61-6.158 1.57-1.406 3.438-2.098 5.75-2.098 2.749 0 4.927.997 6.743 3.088 1.85 2.13 2.725 4.312 2.725 6.645 0 2.847-.865 5.935-2.649 9.271v.01c-1.71 3.308-4.38 6.503-8.035 9.578-3.566 2.991-8.106 5.426-13.636 7.29-5.51 1.855-11.735 2.79-18.684 2.79-14.773 0-26.17-4.264-34.383-12.767-8.223-8.571-12.344-20.011-12.344-34.49 0-9.81 1.894-18.44 5.666-25.926 3.77-7.482 9.194-13.222 16.32-17.278v-.002c7.119-4.108 15.641-6.177 25.62-6.177z" fill="url(#prefix__b)"/></g><g><path d="M1212.131 183.55l-21.329-35.048-13.098 12.39v19.206q0 6.991-3.717 10.797-3.629 3.717-8.408 3.717-5.576 0-8.762-3.717-3.186-3.717-3.186-10.974V76.904q0-8.054 3.098-12.214 3.097-4.248 8.85-4.248 5.576 0 8.85 3.806 3.275 3.806 3.275 11.24v58.588l27.17-28.497q5.045-5.31 7.7-7.258 2.655-1.947 6.46-1.947 4.514 0 7.523 2.92 3.01 2.833 3.01 7.17 0 5.31-9.824 14.16l-12.833 11.77 24.78 38.942q2.744 4.337 3.894 6.638 1.24 2.212 1.24 4.248 0 5.752-3.187 9.115-3.097 3.275-8.23 3.275-4.425 0-6.815-2.39-2.39-2.39-6.46-8.673z"/><path d="M1165.578 59.643c-4.03 0-7.286 1.551-9.49 4.57v.006c-2.21 2.97-3.252 7.217-3.252 12.685V179.92c0 4.955 1.088 8.82 3.379 11.494 2.274 2.653 5.472 3.996 9.367 3.996 3.393 0 6.439-1.353 8.98-3.957 2.65-2.712 3.944-6.553 3.944-11.355v-18.862l12.13-11.474 20.823 34.213.01.01c2.728 4.21 4.886 7.122 6.566 8.802 1.768 1.768 4.285 2.623 7.38 2.623 3.59 0 6.593-1.18 8.81-3.523 2.28-2.407 3.406-5.681 3.406-9.664 0-1.515-.463-3.065-1.336-4.627-.791-1.58-2.091-3.794-3.922-6.688l-24.422-38.377 12.334-11.314.01-.004c6.605-5.95 10.082-10.718 10.082-14.75 0-3.073-1.105-5.717-3.255-7.744-2.15-2.084-4.895-3.143-8.075-3.143-2.673 0-5.016.696-6.933 2.102-1.855 1.36-4.43 3.794-7.807 7.35l-25.793 27.054V75.488c0-5.073-1.116-9.03-3.467-11.761-2.329-2.707-5.558-4.084-9.457-4.084zm0 1.6c3.535 0 6.21 1.16 8.246 3.527 2.015 2.342 3.08 5.88 3.08 10.718v60.584l28.55-29.943c3.348-3.525 5.907-5.928 7.593-7.164 1.623-1.19 3.587-1.791 5.988-1.791 2.837 0 5.102.887 6.965 2.695l.01.004v.004c1.858 1.748 2.758 3.88 2.758 6.586 0 3.047-3.07 7.721-9.56 13.568v.002l-13.33 12.225 25.14 39.508c1.821 2.878 3.11 5.078 3.853 6.564l.01.018.01.015c.775 1.384 1.139 2.665 1.139 3.86 0 3.687-1.001 6.487-2.969 8.564v.002c-1.914 2.023-4.398 3.024-7.65 3.024-2.807 0-4.832-.736-6.25-2.155-1.506-1.506-3.653-4.375-6.354-8.543l-21.832-35.873-14.066 13.307v19.549c0 4.52-1.181 7.876-3.489 10.238-2.296 2.353-4.857 3.477-7.836 3.477-3.539 0-6.18-1.135-8.154-3.438-1.957-2.283-2.994-5.734-2.994-10.455V76.904c0-5.266 1.022-9.161 2.94-11.736v-.006c1.926-2.642 4.564-3.92 8.203-3.92z" fill="url(#prefix__b)"/></g></g><path d="M317.404 142.914l-68.972 99.725a5.938 5.938 0 01-3.012 2.256 5.954 5.954 0 01-3.767-.006 5.917 5.917 0 01-2.998-2.266 5.875 5.875 0 01-1.018-3.61l2.76-55.057-44.563-9.451a5.923 5.923 0 01-2.583-1.26 5.87 5.87 0 01-1.053-7.848l68.973-99.725a5.951 5.951 0 016.78-2.25 5.908 5.908 0 012.998 2.266 5.87 5.87 0 011.017 3.61l-2.76 55.058 44.562 9.45a5.93 5.93 0 012.585 1.26 5.871 5.871 0 011.68 2.323 5.864 5.864 0 01-.629 5.525z" fill="#fcc72b"/></svg>
